<?xml version="1.0" encoding="UTF-8" standalone="no"?><svg xmlns="http://www.w3.org/2000/svg" xmlns:xlink="http://www.w3.org/1999/xlink" contentScriptType="application/ecmascript" contentStyleType="text/css" height="408px" preserveAspectRatio="none" style="width:623px;height:408px;" version="1.1" viewBox="0 0 623 408" width="623px" zoomAndPan="magnify"><defs><filter height="300%" id="fdirudo3n442w" width="300%" x="-1" y="-1"><feGaussianBlur result="blurOut" stdDeviation="2.0"/><feColorMatrix in="blurOut" result="blurOut2" type="matrix" values="0 0 0 0 0 0 0 0 0 0 0 0 0 0 0 0 0 0 .4 0"/><feOffset dx="4.0" dy="4.0" in="blurOut2" result="blurOut3"/><feBlend in="SourceGraphic" in2="blurOut3" mode="normal"/></filter></defs><g><line style="stroke: #A80036; stroke-width: 1.0; stroke-dasharray: 5.0,5.0;" x1="25" x2="25" y1="87.6094" y2="320.0703"/><line style="stroke: #A80036; stroke-width: 1.0; stroke-dasharray: 5.0,5.0;" x1="116" x2="116" y1="87.6094" y2="320.0703"/><line style="stroke: #A80036; stroke-width: 1.0; stroke-dasharray: 5.0,5.0;" x1="343" x2="343" y1="87.6094" y2="320.0703"/><line style="stroke: #A80036; stroke-width: 1.0; stroke-dasharray: 5.0,5.0;" x1="459" x2="459" y1="87.6094" y2="320.0703"/><line style="stroke: #A80036; stroke-width: 1.0; stroke-dasharray: 5.0,5.0;" x1="576" x2="576" y1="87.6094" y2="320.0703"/><text fill="#000000" font-family="sans-serif" font-size="14" lengthAdjust="spacingAndGlyphs" textLength="29" x="8" y="84.5332">User</text><ellipse cx="25.5" cy="13" fill="#FEFECE" filter="url(#fdirudo3n442w)" rx="8" ry="8" style="stroke: #A80036; stroke-width: 2.0;"/><path d="M25.5,21 L25.5,48 M12.5,29 L38.5,29 M25.5,48 L12.5,63 M25.5,48 L38.5,63 " fill="none" filter="url(#fdirudo3n442w)" style="stroke: #A80036; stroke-width: 2.0;"/><text fill="#000000" font-family="sans-serif" font-size="14" lengthAdjust="spacingAndGlyphs" textLength="29" x="8" y="333.6035">User</text><ellipse cx="25.5" cy="346.6797" fill="#FEFECE" filter="url(#fdirudo3n442w)" rx="8" ry="8" style="stroke: #A80036; stroke-width: 2.0;"/><path d="M25.5,354.6797 L25.5,381.6797 M12.5,362.6797 L38.5,362.6797 M25.5,381.6797 L12.5,396.6797 M25.5,381.6797 L38.5,396.6797 " fill="none" filter="url(#fdirudo3n442w)" style="stroke: #A80036; stroke-width: 2.0;"/><rect fill="#FEFECE" filter="url(#fdirudo3n442w)" height="31.6094" style="stroke: #A80036; stroke-width: 1.5;" width="37" x="96" y="51"/><text fill="#000000" font-family="sans-serif" font-size="14" lengthAdjust="spacingAndGlyphs" textLength="23" x="103" y="72.5332">GUI</text><rect fill="#FEFECE" filter="url(#fdirudo3n442w)" height="31.6094" style="stroke: #A80036; stroke-width: 1.5;" width="37" x="96" y="319.0703"/><text fill="#000000" font-family="sans-serif" font-size="14" lengthAdjust="spacingAndGlyphs" textLength="23" x="103" y="340.6035">GUI</text><rect fill="#FEFECE" filter="url(#fdirudo3n442w)" height="31.6094" style="stroke: #A80036; stroke-width: 1.5;" width="71" x="306" y="51"/><text fill="#000000" font-family="sans-serif" font-size="14" lengthAdjust="spacingAndGlyphs" textLength="57" x="313" y="72.5332">Reflector</text><rect fill="#FEFECE" filter="url(#fdirudo3n442w)" height="31.6094" style="stroke: #A80036; stroke-width: 1.5;" width="71" x="306" y="319.0703"/><text fill="#000000" font-family="sans-serif" font-size="14" lengthAdjust="spacingAndGlyphs" textLength="57" x="313" y="340.6035">Reflector</text><rect fill="#FEFECE" filter="url(#fdirudo3n442w)" height="31.6094" style="stroke: #A80036; stroke-width: 1.5;" width="132" x="391" y="51"/><text fill="#000000" font-family="sans-serif" font-size="14" lengthAdjust="spacingAndGlyphs" textLength="118" x="398" y="72.5332">PlantUmlConverter</text><rect fill="#FEFECE" filter="url(#fdirudo3n442w)" height="31.6094" style="stroke: #A80036; stroke-width: 1.5;" width="132" x="391" y="319.0703"/><text fill="#000000" font-family="sans-serif" font-size="14" lengthAdjust="spacingAndGlyphs" textLength="118" x="398" y="340.6035">PlantUmlConverter</text><rect fill="#FEFECE" filter="url(#fdirudo3n442w)" height="31.6094" style="stroke: #A80036; stroke-width: 1.5;" width="75" x="537" y="51"/><text fill="#000000" font-family="sans-serif" font-size="14" lengthAdjust="spacingAndGlyphs" textLength="61" x="544" y="72.5332">FileWriter</text><rect fill="#FEFECE" filter="url(#fdirudo3n442w)" height="31.6094" style="stroke: #A80036; stroke-width: 1.5;" width="75" x="537" y="319.0703"/><text fill="#000000" font-family="sans-serif" font-size="14" lengthAdjust="spacingAndGlyphs" textLength="61" x="544" y="340.6035">FileWriter</text><polygon fill="#A80036" points="104.5,115.9609,114.5,119.9609,104.5,123.9609,108.5,119.9609" style="stroke: #A80036; stroke-width: 1.0;"/><line style="stroke: #A80036; stroke-width: 1.0;" x1="25.5" x2="110.5" y1="119.9609" y2="119.9609"/><text fill="#000000" font-family="sans-serif" font-size="13" lengthAdjust="spacingAndGlyphs" textLength="59" x="32.5" y="115.1045">Input Data</text><polygon fill="#A80036" points="104.5,146.3125,114.5,150.3125,104.5,154.3125,108.5,150.3125" style="stroke: #A80036; stroke-width: 1.0;"/><line style="stroke: #A80036; stroke-width: 1.0;" x1="25.5" x2="110.5" y1="150.3125" y2="150.3125"/><text fill="#000000" font-family="sans-serif" font-size="13" lengthAdjust="spacingAndGlyphs" textLength="67" x="32.5" y="145.4561">Start action</text><polygon fill="#A80036" points="331.5,176.6641,341.5,180.6641,331.5,184.6641,335.5,180.6641" style="stroke: #A80036; stroke-width: 1.0;"/><line style="stroke: #A80036; stroke-width: 1.0;" x1="116.5" x2="337.5" y1="180.6641" y2="180.6641"/><text fill="#000000" font-family="sans-serif" font-size="13" lengthAdjust="spacingAndGlyphs" textLength="186" x="123.5" y="175.8076">Fetch all Assemblies and Types</text><polygon fill="#A80036" points="127.5,207.0156,117.5,211.0156,127.5,215.0156,123.5,211.0156" style="stroke: #A80036; stroke-width: 1.0;"/><line style="stroke: #A80036; stroke-width: 1.0;" x1="121.5" x2="342.5" y1="211.0156" y2="211.0156"/><text fill="#000000" font-family="sans-serif" font-size="13" lengthAdjust="spacingAndGlyphs" textLength="203" x="133.5" y="206.1592">Returned all assemblies and Types</text><polygon fill="#A80036" points="447,237.3672,457,241.3672,447,245.3672,451,241.3672" style="stroke: #A80036; stroke-width: 1.0;"/><line style="stroke: #A80036; stroke-width: 1.0;" x1="116.5" x2="453" y1="241.3672" y2="241.3672"/><text fill="#000000" font-family="sans-serif" font-size="13" lengthAdjust="spacingAndGlyphs" textLength="221" x="123.5" y="236.5107">Convert Assemblies to PlantUml-Code</text><polygon fill="#A80036" points="127.5,267.7188,117.5,271.7188,127.5,275.7188,123.5,271.7188" style="stroke: #A80036; stroke-width: 1.0;"/><line style="stroke: #A80036; stroke-width: 1.0;" x1="121.5" x2="458" y1="271.7188" y2="271.7188"/><text fill="#000000" font-family="sans-serif" font-size="13" lengthAdjust="spacingAndGlyphs" textLength="179" x="133.5" y="266.8623">Returned entire PlantUml-Code</text><polygon fill="#A80036" points="564.5,298.0703,574.5,302.0703,564.5,306.0703,568.5,302.0703" style="stroke: #A80036; stroke-width: 1.0;"/><line style="stroke: #A80036; stroke-width: 1.0;" x1="116.5" x2="570.5" y1="302.0703" y2="302.0703"/><text fill="#000000" font-family="sans-serif" font-size="13" lengthAdjust="spacingAndGlyphs" textLength="178" x="123.5" y="297.2139">Write PlantUml-Code into a file</text><!--MD5=[b6e87e770ce1bd9adcd635c8c6868d34]
@startuml SequenceDiagram

    actor User

    User -> GUI : Input Data
    User -> GUI : Start action
    GUI -> Reflector : Fetch all Assemblies and Types
    Reflector -> GUI : Returned all assemblies and Types
    GUI -> PlantUmlConverter : Convert Assemblies to PlantUml-Code
    PlantUmlConverter -> GUI : Returned entire PlantUml-Code
    GUI -> FileWriter : Write PlantUml-Code into a file

@enduml

PlantUML version 1.2020.10(Sun May 17 11:35:57 CEST 2020)
(GPL source distribution)
Java Runtime: Java(TM) SE Runtime Environment
JVM: Java HotSpot(TM) 64-Bit Server VM
Java Version: 1.8.0_251-b08
Operating System: Windows 10
Default Encoding: Cp1252
Language: de
Country: CH
--></g></svg>